<svg width="80" height="80" viewBox="0 0 80 80" fill="none" xmlns="http://www.w3.org/2000/svg">
<g clip-path="url(#clip0_1_117)">
<path d="M52.0833 48.7336C48.3933 54.1302 42.99 56.6802 36.6666 56.6802C28.9866 56.6802 22.4133 50.7702 23.3566 42.9336C24.4066 34.2402 31.1566 30.5002 42.3833 29.1236C44.3866 28.8802 45.2166 28.8102 49.54 28.4902L50 28.4569V27.7402C50 21.7536 46.44 17.6669 41.6666 17.6669C36.8766 17.6669 33.5333 20.1569 31.4833 26.0869L25.1833 23.9136C28.14 15.3469 33.9766 11.0002 41.6666 11.0002C50.3433 11.0002 56.6666 18.2602 56.6666 27.7402C56.6666 36.5702 57.21 43.5936 58.2766 46.2636C59.4633 49.2369 59.8966 49.9869 61.2233 51.6402L56.0233 55.8102C54.28 53.6369 53.5133 52.3136 52.0866 48.7369V48.7336H52.0833ZM70.8566 68.4836C69.9533 69.1502 68.3833 68.7536 69.0933 67.0169C69.9766 64.8569 70.9166 62.3236 69.9666 61.1769C69.2666 60.3269 68.41 59.9036 66.5433 59.9036C65.01 59.9036 64.2433 60.1036 63.2266 60.1702C62.5466 60.2136 62.25 59.1802 62.9233 58.7036C63.805 58.0719 64.7848 57.5898 65.8233 57.2769C69.6566 56.1302 74.1733 56.7602 74.7233 57.5536C75.94 59.3202 74.06 66.1169 70.8566 68.4869V68.4836ZM66.9166 64.8702C66.051 65.7076 65.1264 66.4818 64.15 67.1869C57.0766 72.5736 47.9166 75.3869 39.9566 75.3869C27.1466 75.3869 15.69 69.4102 6.99664 59.4036C6.25331 58.6369 6.86997 57.5169 7.73997 58.1236C17.1066 65.0469 28.7 69.2336 40.7033 69.2336C48.2533 69.2336 56.3966 67.4436 64.1533 63.5902C64.6933 63.3369 65.3 62.9902 65.83 62.7436C67.0533 62.0436 68.13 63.7636 66.9166 64.8702V64.8702ZM50.0333 35.1369C45.84 35.4502 45.0466 35.5136 43.1933 35.7402C34.6866 36.7836 30.5366 39.0836 29.9766 43.7336C29.5566 47.2102 32.6766 50.0136 36.6666 50.0136C43.4633 50.0136 48.39 45.9202 50.0733 35.1369H50.0333V35.1369Z" fill="#C4C4C4"/>
</g>
<defs>
<clipPath id="clip0_1_117">
<rect width="80" height="80" fill="white"/>
</clipPath>
</defs>
</svg>
