<svg width="80" height="80" viewBox="0 0 80 80" fill="none" xmlns="http://www.w3.org/2000/svg">
<g clip-path="url(#clip0_1_120)">
<path d="M25 36.6667C26.7681 36.6667 28.4638 35.9644 29.714 34.7141C30.9643 33.4639 31.6667 31.7682 31.6667 30.0001C31.6667 28.232 30.9643 26.5363 29.714 25.286C28.4638 24.0358 26.7681 23.3334 25 23.3334H9.99999V36.6667H25ZM28.3333 43.3334H9.99999V56.6668H28.3333C30.1014 56.6668 31.7971 55.9644 33.0474 54.7141C34.2976 53.4639 35 51.7682 35 50.0001C35 48.232 34.2976 46.5363 33.0474 45.286C31.7971 44.0358 30.1014 43.3334 28.3333 43.3334ZM35.21 38.5734C37.7084 40.0757 39.6456 42.3555 40.725 45.0637C41.8043 47.7718 41.9663 50.7591 41.1862 53.5681C40.406 56.3771 38.7267 58.853 36.4054 60.6167C34.0841 62.3804 31.2487 63.3347 28.3333 63.3334H3.33333V16.6667H25C27.5382 16.667 30.0237 17.3918 32.1642 18.756C34.3047 20.1201 36.0114 22.0669 37.0837 24.3675C38.1559 26.6682 38.5492 29.2271 38.2173 31.7436C37.8854 34.26 36.8421 36.6295 35.21 38.5734ZM51.6667 20.0001H70V25.0001H51.6667V20.0001ZM76.6667 48.3334H51.6667V49.1668C51.6659 51.2259 52.3585 53.2253 53.6327 54.8428C54.907 56.4603 56.6887 57.6016 58.6908 58.0829C60.6929 58.5641 62.7987 58.3573 64.6689 57.4957C66.5391 56.6341 68.0648 55.1679 69 53.3334H76.1133C75.0977 57.0277 72.7776 60.2286 69.5827 62.3433C66.3879 64.458 62.5349 65.343 58.7375 64.8345C54.94 64.3259 51.4556 62.4583 48.9298 59.5775C46.4039 56.6967 45.0078 52.9981 45 49.1668V44.1668C45 39.9675 46.6681 35.9402 49.6375 32.9709C52.6068 30.0016 56.6341 28.3334 60.8333 28.3334C65.0326 28.3334 69.0599 30.0016 72.0292 32.9709C74.9985 35.9402 76.6667 39.9675 76.6667 44.1668V48.3334ZM69.6533 41.6668C69.1075 39.7484 67.9512 38.0603 66.3596 36.8583C64.7679 35.6563 62.8278 35.006 60.8333 35.006C58.8388 35.006 56.8987 35.6563 55.3071 36.8583C53.7155 38.0603 52.5591 39.7484 52.0133 41.6668H69.6533Z" fill="#C4C4C4"/>
</g>
<defs>
<clipPath id="clip0_1_120">
<rect width="80" height="80" fill="white"/>
</clipPath>
</defs>
</svg>
