<svg width="80" height="80" viewBox="0 0 80 80" fill="none" xmlns="http://www.w3.org/2000/svg">
<g clip-path="url(#clip0_1_123)">
<path d="M40 36.6667H68.4433C68.59 37.95 68.6667 39.2667 68.6667 40.6133C68.6667 49.7267 65.4 57.4 59.74 62.6133C54.79 67.1833 48.0133 69.8633 39.9333 69.8633C36.0022 69.8651 32.1093 69.0921 28.477 67.5887C24.8448 66.0852 21.5444 63.8807 18.7645 61.1012C15.9847 58.3216 13.7798 55.0215 12.2759 51.3894C10.7721 47.7573 9.99869 43.8644 10 39.9333C9.99825 36.0019 10.7713 32.1087 12.275 28.4763C13.7786 24.8438 15.9834 21.5433 18.7634 18.7634C21.5433 15.9834 24.8438 13.7786 28.4763 12.275C32.1087 10.7713 36.0019 9.99825 39.9333 10C48 10 54.7767 12.9667 59.96 17.7967L55.0867 22.6667C51.2267 18.9367 46.01 16.6667 40 16.6667C36.9358 16.6667 33.9017 17.2702 31.0707 18.4428C28.2398 19.6154 25.6675 21.3341 23.5008 23.5008C21.3341 25.6675 19.6154 28.2398 18.4428 31.0707C17.2702 33.9016 16.6667 36.9358 16.6667 40C16.6667 43.0642 17.2702 46.0984 18.4428 48.9293C19.6154 51.7602 21.3341 54.3325 23.5008 56.4992C25.6675 58.6659 28.2398 60.3846 31.0707 61.5572C33.9017 62.7298 36.9358 63.3333 40 63.3333C51.7533 63.3333 60.48 54.64 61.9233 43.3333H40V36.6667Z" fill="#C4C4C4"/>
</g>
<defs>
<clipPath id="clip0_1_123">
<rect width="80" height="80" fill="white"/>
</clipPath>
</defs>
</svg>
