<svg width="80" height="80" viewBox="0 0 80 80" fill="none" xmlns="http://www.w3.org/2000/svg">
<g clip-path="url(#clip0_1_126)">
<path d="M40 31.8334C43.0567 28.7101 47.0367 26.6667 51.6667 26.6667C56.529 26.6667 61.1921 28.5983 64.6303 32.0365C68.0685 35.4746 70 40.1378 70 45.0001V70.0001H63.3333V45.0001C63.3333 41.9059 62.1042 38.9384 59.9162 36.7505C57.7283 34.5626 54.7609 33.3334 51.6667 33.3334C48.5725 33.3334 45.605 34.5626 43.4171 36.7505C41.2292 38.9384 40 41.9059 40 45.0001V70.0001H33.3333V28.3334H40V31.8334ZM16.6667 21.6667C15.3406 21.6667 14.0688 21.14 13.1311 20.2023C12.1934 19.2646 11.6667 17.9928 11.6667 16.6667C11.6667 15.3407 12.1934 14.0689 13.1311 13.1312C14.0688 12.1935 15.3406 11.6667 16.6667 11.6667C17.9927 11.6667 19.2645 12.1935 20.2022 13.1312C21.1399 14.0689 21.6667 15.3407 21.6667 16.6667C21.6667 17.9928 21.1399 19.2646 20.2022 20.2023C19.2645 21.14 17.9927 21.6667 16.6667 21.6667ZM13.3333 28.3334H20V70.0001H13.3333V28.3334Z" fill="#C4C4C4"/>
</g>
<defs>
<clipPath id="clip0_1_126">
<rect width="80" height="80" fill="white"/>
</clipPath>
</defs>
</svg>
